<mxfile host="app.diagrams.net" modified="2024-06-21T23:32:14.812Z" agent="Mozilla/5.0 (Windows NT 10.0; Win64; x64) AppleWebKit/537.36 (KHTML, like Gecko) Chrome/126.0.0.0 Safari/537.36" etag="QuEOjLkjAAKcIUaapbM7" version="24.6.1" type="device">
  <diagram name="Page-1" id="e7e014a7-5840-1c2e-5031-d8a46d1fe8dd">
    <mxGraphModel dx="800" dy="474" grid="1" gridSize="10" guides="1" tooltips="1" connect="1" arrows="1" fold="1" page="1" pageScale="1" pageWidth="1169" pageHeight="826" background="none" math="0" shadow="0">
      <root>
        <mxCell id="0" />
        <mxCell id="1" parent="0" />
        <mxCell id="zscKiEwWfd5TCdISiovu-48" value="" style="ellipse;shape=startState;fillColor=#000000;strokeColor=#ff0000;" parent="1" vertex="1">
          <mxGeometry x="264.5" y="10" width="30" height="30" as="geometry" />
        </mxCell>
        <mxCell id="zscKiEwWfd5TCdISiovu-49" value="clicar na aba de&#xa;Configurações" style="" parent="1" vertex="1">
          <mxGeometry x="224.5" y="255" width="110" height="50" as="geometry" />
        </mxCell>
        <mxCell id="zscKiEwWfd5TCdISiovu-50" value="" style="endArrow=open;strokeColor=#FF0000;endFill=1;rounded=0;exitX=0.5;exitY=1;exitDx=0;exitDy=0;" parent="1" source="q0rS9w-1fR8uWFA-R6rJ-20" target="zscKiEwWfd5TCdISiovu-49" edge="1">
          <mxGeometry relative="1" as="geometry">
            <mxPoint x="240" y="260" as="sourcePoint" />
          </mxGeometry>
        </mxCell>
        <mxCell id="zscKiEwWfd5TCdISiovu-51" value="clicar no checkbox&#xa;do exercício &#xa;desejado" style="" parent="1" vertex="1">
          <mxGeometry x="224.5" y="343" width="110" height="50" as="geometry" />
        </mxCell>
        <mxCell id="zscKiEwWfd5TCdISiovu-52" value="" style="endArrow=open;strokeColor=#FF0000;endFill=1;rounded=0" parent="1" source="zscKiEwWfd5TCdISiovu-49" target="zscKiEwWfd5TCdISiovu-51" edge="1">
          <mxGeometry relative="1" as="geometry" />
        </mxCell>
        <mxCell id="zscKiEwWfd5TCdISiovu-54" value="ler painel &#xa;de tutorial" style="" parent="1" vertex="1">
          <mxGeometry x="224.5" y="80" width="110" height="50" as="geometry" />
        </mxCell>
        <mxCell id="zscKiEwWfd5TCdISiovu-55" value="" style="edgeStyle=elbowEdgeStyle;elbow=horizontal;verticalAlign=bottom;endArrow=open;endSize=8;strokeColor=#FF0000;endFill=1;rounded=0;entryX=0.5;entryY=0;entryDx=0;entryDy=0;exitX=0.5;exitY=1;exitDx=0;exitDy=0;" parent="1" source="zscKiEwWfd5TCdISiovu-48" target="zscKiEwWfd5TCdISiovu-54" edge="1">
          <mxGeometry x="-64.5" y="-88" as="geometry">
            <mxPoint x="289.5" y="410" as="targetPoint" />
            <mxPoint x="290" y="320" as="sourcePoint" />
          </mxGeometry>
        </mxCell>
        <mxCell id="zscKiEwWfd5TCdISiovu-74" value="&lt;font face=&quot;Helvetica&quot;&gt;Sim&lt;/font&gt;" style="text;html=1;align=center;verticalAlign=middle;whiteSpace=wrap;rounded=0;fontFamily=Architects Daughter;fontSource=https%3A%2F%2Ffonts.googleapis.com%2Fcss%3Ffamily%3DArchitects%2BDaughter;" parent="1" vertex="1">
          <mxGeometry x="470" y="320" width="90" height="30" as="geometry" />
        </mxCell>
        <mxCell id="zscKiEwWfd5TCdISiovu-76" value="&lt;font face=&quot;Helvetica&quot;&gt;Não&lt;/font&gt;" style="text;html=1;align=center;verticalAlign=middle;whiteSpace=wrap;rounded=0;fontFamily=Architects Daughter;fontSource=https%3A%2F%2Ffonts.googleapis.com%2Fcss%3Ffamily%3DArchitects%2BDaughter;" parent="1" vertex="1">
          <mxGeometry x="390" y="370" width="90" height="30" as="geometry" />
        </mxCell>
        <mxCell id="q0rS9w-1fR8uWFA-R6rJ-20" value="pular tutorial" style="" vertex="1" parent="1">
          <mxGeometry x="224.5" y="170" width="110" height="50" as="geometry" />
        </mxCell>
        <mxCell id="q0rS9w-1fR8uWFA-R6rJ-22" value="" style="endArrow=open;strokeColor=#FF0000;endFill=1;rounded=0;exitX=0.5;exitY=1;exitDx=0;exitDy=0;entryX=0.5;entryY=0;entryDx=0;entryDy=0;" edge="1" parent="1" source="zscKiEwWfd5TCdISiovu-54" target="q0rS9w-1fR8uWFA-R6rJ-20">
          <mxGeometry relative="1" as="geometry">
            <mxPoint x="250" y="270" as="sourcePoint" />
            <mxPoint x="250" y="330" as="targetPoint" />
          </mxGeometry>
        </mxCell>
        <mxCell id="q0rS9w-1fR8uWFA-R6rJ-23" value="ler enunciado do&#xa;exercício" style="" vertex="1" parent="1">
          <mxGeometry x="224.5" y="440" width="110" height="50" as="geometry" />
        </mxCell>
        <mxCell id="q0rS9w-1fR8uWFA-R6rJ-24" value="" style="endArrow=open;strokeColor=#FF0000;endFill=1;rounded=0;entryX=0.5;entryY=0;entryDx=0;entryDy=0;exitX=0.5;exitY=1;exitDx=0;exitDy=0;" edge="1" parent="1" source="zscKiEwWfd5TCdISiovu-51" target="q0rS9w-1fR8uWFA-R6rJ-23">
          <mxGeometry relative="1" as="geometry">
            <mxPoint x="290" y="300" as="sourcePoint" />
            <mxPoint x="290" y="340" as="targetPoint" />
          </mxGeometry>
        </mxCell>
        <mxCell id="q0rS9w-1fR8uWFA-R6rJ-25" value="clicar na aba da &#xa;Fábrica de Peças" style="" vertex="1" parent="1">
          <mxGeometry x="400" y="60" width="110" height="50" as="geometry" />
        </mxCell>
        <mxCell id="q0rS9w-1fR8uWFA-R6rJ-26" value="" style="endArrow=open;strokeColor=#FF0000;endFill=1;rounded=0;exitX=1;exitY=0.5;exitDx=0;exitDy=0;entryX=0;entryY=0.5;entryDx=0;entryDy=0;" edge="1" parent="1" source="q0rS9w-1fR8uWFA-R6rJ-23" target="q0rS9w-1fR8uWFA-R6rJ-25">
          <mxGeometry relative="1" as="geometry">
            <mxPoint x="290" y="120" as="sourcePoint" />
            <mxPoint x="290" y="150" as="targetPoint" />
            <Array as="points">
              <mxPoint x="360" y="465" />
              <mxPoint x="360" y="85" />
            </Array>
          </mxGeometry>
        </mxCell>
        <mxCell id="q0rS9w-1fR8uWFA-R6rJ-27" value="pegar peça&#xa;desejada" style="" vertex="1" parent="1">
          <mxGeometry x="400" y="150" width="110" height="50" as="geometry" />
        </mxCell>
        <mxCell id="q0rS9w-1fR8uWFA-R6rJ-28" value="arrastar peça até o&#xa;lugar desejado" style="" vertex="1" parent="1">
          <mxGeometry x="400" y="240" width="110" height="50" as="geometry" />
        </mxCell>
        <mxCell id="q0rS9w-1fR8uWFA-R6rJ-29" value="precisa alterar&#xa;propriedades" style="rhombus;fillColor=#ffffc0;strokeColor=#ff0000;" vertex="1" parent="1">
          <mxGeometry x="415" y="330" width="80" height="40" as="geometry" />
        </mxCell>
        <mxCell id="q0rS9w-1fR8uWFA-R6rJ-30" value="mudar valor&#xa;das propriedades&#xa;desejadas" style="" vertex="1" parent="1">
          <mxGeometry x="600" y="325" width="110" height="50" as="geometry" />
        </mxCell>
        <mxCell id="q0rS9w-1fR8uWFA-R6rJ-31" value="terminou&#xa;exercício" style="rhombus;fillColor=#ffffc0;strokeColor=#ff0000;" vertex="1" parent="1">
          <mxGeometry x="485" y="393" width="80" height="40" as="geometry" />
        </mxCell>
        <mxCell id="q0rS9w-1fR8uWFA-R6rJ-32" value="clicar na aba de&#xa;Configurações" style="" vertex="1" parent="1">
          <mxGeometry x="450" y="490" width="110" height="50" as="geometry" />
        </mxCell>
        <mxCell id="q0rS9w-1fR8uWFA-R6rJ-33" value="clicar no botão&#xa;checar resposta" style="" vertex="1" parent="1">
          <mxGeometry x="450" y="580" width="110" height="50" as="geometry" />
        </mxCell>
        <mxCell id="q0rS9w-1fR8uWFA-R6rJ-34" value="ler resposta dada&#xa;pela aplicação" style="" vertex="1" parent="1">
          <mxGeometry x="450" y="670" width="110" height="50" as="geometry" />
        </mxCell>
        <mxCell id="q0rS9w-1fR8uWFA-R6rJ-35" value="" style="ellipse;shape=endState;fillColor=#000000;strokeColor=#ff0000" vertex="1" parent="1">
          <mxGeometry x="490" y="760" width="30" height="30" as="geometry" />
        </mxCell>
        <mxCell id="q0rS9w-1fR8uWFA-R6rJ-36" value="" style="endArrow=open;strokeColor=#FF0000;endFill=1;rounded=0;entryX=0.5;entryY=0;entryDx=0;entryDy=0;exitX=0.5;exitY=1;exitDx=0;exitDy=0;" edge="1" parent="1" source="q0rS9w-1fR8uWFA-R6rJ-25" target="q0rS9w-1fR8uWFA-R6rJ-27">
          <mxGeometry relative="1" as="geometry">
            <mxPoint x="290" y="380" as="sourcePoint" />
            <mxPoint x="290" y="423" as="targetPoint" />
          </mxGeometry>
        </mxCell>
        <mxCell id="q0rS9w-1fR8uWFA-R6rJ-37" value="" style="endArrow=open;strokeColor=#FF0000;endFill=1;rounded=0;entryX=0.5;entryY=0;entryDx=0;entryDy=0;exitX=0.5;exitY=1;exitDx=0;exitDy=0;" edge="1" parent="1" source="q0rS9w-1fR8uWFA-R6rJ-27" target="q0rS9w-1fR8uWFA-R6rJ-28">
          <mxGeometry relative="1" as="geometry">
            <mxPoint x="300" y="390" as="sourcePoint" />
            <mxPoint x="300" y="433" as="targetPoint" />
          </mxGeometry>
        </mxCell>
        <mxCell id="q0rS9w-1fR8uWFA-R6rJ-38" value="" style="endArrow=open;strokeColor=#FF0000;endFill=1;rounded=0;exitX=0.5;exitY=1;exitDx=0;exitDy=0;" edge="1" parent="1" source="q0rS9w-1fR8uWFA-R6rJ-28" target="q0rS9w-1fR8uWFA-R6rJ-29">
          <mxGeometry relative="1" as="geometry">
            <mxPoint x="310" y="400" as="sourcePoint" />
            <mxPoint x="310" y="443" as="targetPoint" />
          </mxGeometry>
        </mxCell>
        <mxCell id="q0rS9w-1fR8uWFA-R6rJ-39" value="" style="endArrow=open;strokeColor=#FF0000;endFill=1;rounded=0;entryX=0;entryY=0.5;entryDx=0;entryDy=0;exitX=1;exitY=0.5;exitDx=0;exitDy=0;" edge="1" parent="1" source="q0rS9w-1fR8uWFA-R6rJ-29" target="q0rS9w-1fR8uWFA-R6rJ-51">
          <mxGeometry relative="1" as="geometry">
            <mxPoint x="320" y="410" as="sourcePoint" />
            <mxPoint x="320" y="453" as="targetPoint" />
            <Array as="points">
              <mxPoint x="560" y="350" />
              <mxPoint x="560" y="265" />
            </Array>
          </mxGeometry>
        </mxCell>
        <mxCell id="q0rS9w-1fR8uWFA-R6rJ-40" value="" style="endArrow=open;strokeColor=#FF0000;endFill=1;rounded=0;entryX=0;entryY=0.5;entryDx=0;entryDy=0;exitX=0.5;exitY=1;exitDx=0;exitDy=0;" edge="1" parent="1" source="q0rS9w-1fR8uWFA-R6rJ-29" target="q0rS9w-1fR8uWFA-R6rJ-31">
          <mxGeometry relative="1" as="geometry">
            <mxPoint x="290" y="380" as="sourcePoint" />
            <mxPoint x="290" y="423" as="targetPoint" />
            <Array as="points">
              <mxPoint x="455" y="413" />
            </Array>
          </mxGeometry>
        </mxCell>
        <mxCell id="q0rS9w-1fR8uWFA-R6rJ-41" value="" style="endArrow=open;strokeColor=#FF0000;endFill=1;rounded=0;entryX=1;entryY=0.5;entryDx=0;entryDy=0;exitX=0.5;exitY=1;exitDx=0;exitDy=0;" edge="1" parent="1" source="q0rS9w-1fR8uWFA-R6rJ-30" target="q0rS9w-1fR8uWFA-R6rJ-31">
          <mxGeometry relative="1" as="geometry">
            <mxPoint x="300" y="390" as="sourcePoint" />
            <mxPoint x="300" y="433" as="targetPoint" />
            <Array as="points">
              <mxPoint x="655" y="413" />
            </Array>
          </mxGeometry>
        </mxCell>
        <mxCell id="q0rS9w-1fR8uWFA-R6rJ-42" value="" style="endArrow=open;strokeColor=#FF0000;endFill=1;rounded=0;exitX=1;exitY=1;exitDx=0;exitDy=0;entryX=1;entryY=0.5;entryDx=0;entryDy=0;" edge="1" parent="1" source="q0rS9w-1fR8uWFA-R6rJ-31" target="q0rS9w-1fR8uWFA-R6rJ-27">
          <mxGeometry relative="1" as="geometry">
            <mxPoint x="625" y="365" as="sourcePoint" />
            <mxPoint x="720" y="150" as="targetPoint" />
            <Array as="points">
              <mxPoint x="545" y="460" />
              <mxPoint x="720" y="460" />
              <mxPoint x="720" y="175" />
            </Array>
          </mxGeometry>
        </mxCell>
        <mxCell id="q0rS9w-1fR8uWFA-R6rJ-43" value="&lt;font face=&quot;Helvetica&quot;&gt;Não&lt;/font&gt;" style="text;html=1;align=center;verticalAlign=middle;whiteSpace=wrap;rounded=0;fontFamily=Architects Daughter;fontSource=https%3A%2F%2Ffonts.googleapis.com%2Fcss%3Ffamily%3DArchitects%2BDaughter;" vertex="1" parent="1">
          <mxGeometry x="540" y="433" width="90" height="30" as="geometry" />
        </mxCell>
        <mxCell id="q0rS9w-1fR8uWFA-R6rJ-44" value="" style="endArrow=open;strokeColor=#FF0000;endFill=1;rounded=0;entryX=0.5;entryY=0;entryDx=0;entryDy=0;exitX=0;exitY=1;exitDx=0;exitDy=0;" edge="1" parent="1" source="q0rS9w-1fR8uWFA-R6rJ-31" target="q0rS9w-1fR8uWFA-R6rJ-32">
          <mxGeometry relative="1" as="geometry">
            <mxPoint x="465" y="360" as="sourcePoint" />
            <mxPoint x="495" y="423" as="targetPoint" />
            <Array as="points">
              <mxPoint x="505" y="480" />
            </Array>
          </mxGeometry>
        </mxCell>
        <mxCell id="q0rS9w-1fR8uWFA-R6rJ-45" value="&lt;font face=&quot;Helvetica&quot;&gt;Sim&lt;/font&gt;" style="text;html=1;align=center;verticalAlign=middle;whiteSpace=wrap;rounded=0;fontFamily=Architects Daughter;fontSource=https%3A%2F%2Ffonts.googleapis.com%2Fcss%3Ffamily%3DArchitects%2BDaughter;" vertex="1" parent="1">
          <mxGeometry x="440" y="433" width="90" height="30" as="geometry" />
        </mxCell>
        <mxCell id="q0rS9w-1fR8uWFA-R6rJ-47" value="" style="endArrow=open;strokeColor=#FF0000;endFill=1;rounded=0;exitX=0.5;exitY=1;exitDx=0;exitDy=0;" edge="1" parent="1" source="q0rS9w-1fR8uWFA-R6rJ-32" target="q0rS9w-1fR8uWFA-R6rJ-33">
          <mxGeometry relative="1" as="geometry">
            <mxPoint x="290" y="530" as="sourcePoint" />
            <mxPoint x="290" y="570" as="targetPoint" />
          </mxGeometry>
        </mxCell>
        <mxCell id="q0rS9w-1fR8uWFA-R6rJ-48" value="" style="endArrow=open;strokeColor=#FF0000;endFill=1;rounded=0;entryX=0.5;entryY=0;entryDx=0;entryDy=0;exitX=0.5;exitY=1;exitDx=0;exitDy=0;" edge="1" parent="1" source="q0rS9w-1fR8uWFA-R6rJ-33" target="q0rS9w-1fR8uWFA-R6rJ-34">
          <mxGeometry relative="1" as="geometry">
            <mxPoint x="300" y="540" as="sourcePoint" />
            <mxPoint x="300" y="580" as="targetPoint" />
          </mxGeometry>
        </mxCell>
        <mxCell id="q0rS9w-1fR8uWFA-R6rJ-49" value="" style="endArrow=open;strokeColor=#FF0000;endFill=1;rounded=0;entryX=0.5;entryY=0;entryDx=0;entryDy=0;exitX=0.5;exitY=1;exitDx=0;exitDy=0;" edge="1" parent="1" source="q0rS9w-1fR8uWFA-R6rJ-34" target="q0rS9w-1fR8uWFA-R6rJ-35">
          <mxGeometry relative="1" as="geometry">
            <mxPoint x="310" y="550" as="sourcePoint" />
            <mxPoint x="505" y="760" as="targetPoint" />
          </mxGeometry>
        </mxCell>
        <mxCell id="q0rS9w-1fR8uWFA-R6rJ-51" value="clicar na peça&#xa;desejada" style="" vertex="1" parent="1">
          <mxGeometry x="600" y="240" width="110" height="50" as="geometry" />
        </mxCell>
        <mxCell id="q0rS9w-1fR8uWFA-R6rJ-52" value="" style="endArrow=open;strokeColor=#FF0000;endFill=1;rounded=0;entryX=0.5;entryY=0;entryDx=0;entryDy=0;exitX=0.5;exitY=1;exitDx=0;exitDy=0;" edge="1" parent="1" source="q0rS9w-1fR8uWFA-R6rJ-51" target="q0rS9w-1fR8uWFA-R6rJ-30">
          <mxGeometry relative="1" as="geometry">
            <mxPoint x="665" y="385" as="sourcePoint" />
            <mxPoint x="575" y="423" as="targetPoint" />
            <Array as="points" />
          </mxGeometry>
        </mxCell>
      </root>
    </mxGraphModel>
  </diagram>
</mxfile>
